<?xml version="1.0" encoding="UTF-8" standalone="no"?><!DOCTYPE svg PUBLIC "-//W3C//DTD SVG 1.1//EN" "http://www.w3.org/Graphics/SVG/1.1/DTD/svg11.dtd"><svg width="100%" height="100%" viewBox="0 0 4000 4000" version="1.1" xmlns="http://www.w3.org/2000/svg" xmlns:xlink="http://www.w3.org/1999/xlink" xml:space="preserve" xmlns:serif="http://www.serif.com/" style="fill-rule:evenodd;clip-rule:evenodd;stroke-linejoin:round;stroke-miterlimit:2;"><g><path d="M2809.81,147.65c-148.942,-68.341 -308.66,-118.691 -475.655,-147.529c-3.041,-0.557 -6.079,0.834 -7.646,3.616c-20.541,36.534 -43.294,84.196 -59.227,121.658c-179.614,-26.891 -358.306,-26.891 -534.237,-0c-15.937,-38.295 -39.516,-85.124 -60.149,-121.658c-1.567,-2.689 -4.605,-4.08 -7.646,-3.616c-166.903,28.746 -326.621,79.096 -475.655,147.529c-1.29,0.557 -2.396,1.485 -3.13,2.689c-302.951,452.603 -385.942,894.081 -345.23,1330.09c0.185,2.133 1.382,4.174 3.04,5.47c199.879,146.787 393.495,235.899 583.516,294.965c3.041,0.928 6.264,-0.184 8.199,-2.689c44.949,-61.383 85.018,-126.107 119.373,-194.171c2.027,-3.986 0.092,-8.716 -4.052,-10.292c-63.555,-24.109 -124.073,-53.504 -182.286,-86.884c-4.605,-2.689 -4.974,-9.275 -0.738,-12.428c12.251,-9.18 24.504,-18.731 36.202,-28.375c2.116,-1.761 5.065,-2.133 7.553,-1.02c382.438,174.608 796.473,174.608 1174.4,-0c2.488,-1.205 5.437,-0.833 7.646,0.928c11.7,9.644 23.951,19.287 36.293,28.467c4.236,3.153 3.96,9.739 -0.645,12.428c-58.214,34.029 -118.731,62.775 -182.379,86.792c-4.143,1.576 -5.986,6.398 -3.959,10.384c35.092,67.969 75.161,132.693 119.281,194.079c1.843,2.597 5.157,3.709 8.198,2.781c190.943,-59.066 384.558,-148.178 584.437,-294.965c1.751,-1.296 2.857,-3.245 3.041,-5.378c48.725,-504.068 -81.612,-941.926 -345.506,-1330.08c-0.645,-1.297 -1.748,-2.225 -3.038,-2.782Zm-1197.34,1067.29c-115.141,0 -210.013,-105.707 -210.013,-235.527c0,-129.819 93.033,-235.527 210.013,-235.527c117.898,0 211.852,106.636 210.009,235.527c-0,129.82 -93.033,235.527 -210.009,235.527Zm776.485,0c-115.137,0 -210.01,-105.707 -210.01,-235.527c0,-129.819 93.029,-235.527 210.01,-235.527c117.901,0 211.852,106.636 210.012,235.527c0,129.82 -92.111,235.527 -210.012,235.527Z" style="fill:#b5b5b5;fill-rule:nonzero;"/><clipPath id="_clip1"><path d="M2809.81,147.65c-148.942,-68.341 -308.66,-118.691 -475.655,-147.529c-3.041,-0.557 -6.079,0.834 -7.646,3.616c-20.541,36.534 -43.294,84.196 -59.227,121.658c-179.614,-26.891 -358.306,-26.891 -534.237,-0c-15.937,-38.295 -39.516,-85.124 -60.149,-121.658c-1.567,-2.689 -4.605,-4.08 -7.646,-3.616c-166.903,28.746 -326.621,79.096 -475.655,147.529c-1.29,0.557 -2.396,1.485 -3.13,2.689c-302.951,452.603 -385.942,894.081 -345.23,1330.09c0.185,2.133 1.382,4.174 3.04,5.47c199.879,146.787 393.495,235.899 583.516,294.965c3.041,0.928 6.264,-0.184 8.199,-2.689c44.949,-61.383 85.018,-126.107 119.373,-194.171c2.027,-3.986 0.092,-8.716 -4.052,-10.292c-63.555,-24.109 -124.073,-53.504 -182.286,-86.884c-4.605,-2.689 -4.974,-9.275 -0.738,-12.428c12.251,-9.18 24.504,-18.731 36.202,-28.375c2.116,-1.761 5.065,-2.133 7.553,-1.02c382.438,174.608 796.473,174.608 1174.4,-0c2.488,-1.205 5.437,-0.833 7.646,0.928c11.7,9.644 23.951,19.287 36.293,28.467c4.236,3.153 3.96,9.739 -0.645,12.428c-58.214,34.029 -118.731,62.775 -182.379,86.792c-4.143,1.576 -5.986,6.398 -3.959,10.384c35.092,67.969 75.161,132.693 119.281,194.079c1.843,2.597 5.157,3.709 8.198,2.781c190.943,-59.066 384.558,-148.178 584.437,-294.965c1.751,-1.296 2.857,-3.245 3.041,-5.378c48.725,-504.068 -81.612,-941.926 -345.506,-1330.08c-0.645,-1.297 -1.748,-2.225 -3.038,-2.782Zm-1197.34,1067.29c-115.141,0 -210.013,-105.707 -210.013,-235.527c0,-129.819 93.033,-235.527 210.013,-235.527c117.898,0 211.852,106.636 210.009,235.527c-0,129.82 -93.033,235.527 -210.009,235.527Zm776.485,0c-115.137,0 -210.01,-105.707 -210.01,-235.527c0,-129.819 93.029,-235.527 210.01,-235.527c117.901,0 211.852,106.636 210.012,235.527c0,129.82 -92.111,235.527 -210.012,235.527Z" clip-rule="nonzero"/></clipPath><g clip-path="url(#_clip1)"><rect x="-2837.05" y="-4239.17" width="10060.9" height="10060.9" style="fill:url(#_Linear2);"/></g><path d="M2061.88,1818.62l-0,-173.264l-123.76,-0l0,173.264l-173.264,-0l0,123.759l173.264,0l0,173.264l123.76,0l-0,-173.264l173.264,0l-0,-123.759l-173.264,-0Z"/><clipPath id="_clip3"><path d="M2061.88,1818.62l-0,-173.264l-123.76,-0l0,173.264l-173.264,-0l0,123.759l173.264,0l0,173.264l123.76,0l-0,-173.264l173.264,0l-0,-123.759l-173.264,-0Z"/></clipPath><g clip-path="url(#_clip3)"><rect x="-1081.91" y="-3249.25" width="10060.9" height="10060.9" style="fill:url(#_Linear4);"/></g><g><path d="M1524.11,2346.41c0,0 50.781,-29.473 79.258,-42.218l442.891,162.898l716.311,19.317c-0,-0 53.768,55.759 69.699,74.877l130.039,373.19l104.948,42.019c-0,0 24.096,72.089 30.866,99.372l-21.706,172.058l-1038.32,257.489l-833.805,-204.518l2.589,-512.589l254.901,-331.969l62.331,-109.926Z" style="fill:#2f2f2f;fill-rule:nonzero;"/><g><g><path d="M2182.07,2779.35c-1.992,100.766 -7.568,390.317 -5.576,558.392c33.256,0.797 69.699,-0.995 109.926,-5.177c53.768,-5.377 109.926,-16.131 164.092,-26.486l34.452,-6.572c55.56,-10.554 106.938,-23.698 157.122,-40.226c77.466,-25.49 163.097,-58.349 240.364,-105.943c-56.756,-197.748 -158.517,-346.108 -191.176,-390.516c-219.055,-17.326 -428.95,5.775 -509.204,16.528Z" style="fill:#757f3f;fill-rule:nonzero;"/><path d="M2764.36,2718.61c38.832,53.171 132.03,193.765 191.374,382.75c43.413,-36.045 80.852,-79.059 109.528,-129.84c-26.685,-74.28 -58.946,-146.369 -97.579,-215.073c-38.833,-68.903 -84.038,-134.818 -135.217,-195.357c-18.918,61.933 -48.989,122.471 -68.106,157.52Z" style="fill:#757f3f;fill-rule:nonzero;"/><path d="M1625.67,2443.2c84.834,32.46 375.381,147.962 525.534,254.502c64.721,-9.558 292.538,-39.031 538.478,-20.312c31.862,-58.747 65.318,-137.607 72.686,-191.176c-2.987,-2.987 -5.576,-6.173 -8.563,-8.961c-102.159,-95.986 -231.601,-148.758 -362.238,-192.968c-182.413,-61.733 -380.957,-83.44 -571.137,-49.387c-75.275,13.542 -147.962,36.841 -217.064,69.301l22.304,139.001Z" style="fill:#757f3f;fill-rule:nonzero;"/><path d="M3097.52,3076.46c-39.629,50.781 -87.622,92.999 -139.001,128.048c-0.995,0.796 -2.19,1.394 -2.987,2.19c-94.393,63.726 -199.738,104.749 -286.763,133.226c-53.768,17.723 -108.532,31.862 -167.876,43.014l-34.451,6.572c-56.158,10.754 -113.909,21.906 -171.461,27.88c-34.053,3.385 -68.903,6.173 -104.151,6.173c-105.146,0 -210.691,-24.693 -287.759,-130.039c-31.066,-42.815 -65.717,-78.86 -102.558,-107.138l-15.334,-11.948c-23.299,-18.521 -66.911,-53.171 -89.414,-53.769l2.191,-85.033c50.98,1.394 102.557,42.218 140.195,72.089l13.94,10.953c43.214,33.057 83.639,74.877 119.684,124.463c32.46,44.409 72.089,69.7 119.684,83.042c-1.594,-179.625 4.182,-478.337 5.974,-562.375c-145.772,-101.96 -438.907,-217.462 -508.806,-244.147c-27.481,16.927 -98.376,75.873 -181.816,160.906c-8.364,8.563 -19.516,12.745 -30.469,12.745c-10.753,0 -21.507,-3.982 -29.672,-12.147c-16.727,-16.33 -17.126,-43.214 -0.597,-60.141c52.772,-53.569 136.412,-134.619 194.959,-170.863l-16.927,-103.952c-142.585,85.233 -283.378,217.462 -368.013,371.199c-84.834,153.538 -113.51,328.185 -32.659,497.256c26.486,54.764 79.657,146.767 133.026,178.63c47.197,28.278 97.181,52.374 148.162,73.483c45.205,18.719 83.44,42.218 129.84,55.759c41.421,12.347 84.236,25.69 126.255,35.049c42.417,9.559 86.427,12.546 129.044,20.512c37.836,6.97 76.072,13.342 114.307,13.94c196.154,2.589 394.498,12.944 587.068,-33.655c117.095,-28.278 233.194,-63.526 343.319,-112.117c55.76,-24.295 110.126,-52.175 161.305,-84.834c41.62,-26.287 96.384,-52.175 118.091,-99.172c22.901,-49.586 3.385,-109.528 -8.763,-159.711c-2.19,-8.364 -5.177,-17.326 -7.567,-26.088Z" style="fill:#757f3f;fill-rule:nonzero;"/></g><g><path d="M1321.98,3552.01c-19.516,-11.55 -47.396,-15.533 -85.233,-20.91c-49.785,-6.969 -103.951,-20.909 -153.737,-11.948c-42.815,7.766 -47.395,18.719 -61.335,58.348c-21.706,62.332 -84.834,249.126 -35.845,308.072c12.147,14.537 40.425,19.715 57.751,24.892c49.984,15.135 103.155,18.521 155.728,22.105c44.807,2.987 89.016,-5.178 131.831,-17.126c32.062,-8.961 46.201,-16.529 48.79,-51.976c5.775,-75.674 -11.152,-150.351 -17.923,-225.428c-4.779,-48.59 -16.728,-72.487 -40.027,-86.029Z" style="fill:#bdcf46;fill-rule:nonzero;"/><g><path d="M3051.12,3327.58c-18.52,12.347 -38.235,23.3 -55.56,34.252c-51.18,32.46 -105.545,60.34 -161.305,84.835c-110.125,48.59 -226.224,83.838 -343.319,112.116c-192.57,46.599 -390.914,36.244 -587.068,33.655c-38.435,-0.597 -76.67,-6.97 -114.307,-13.94c-10.555,-1.991 -20.91,-3.584 -31.465,-5.178l10.356,110.524c-0,-0 37.438,2.788 104.35,-1.394c-12.945,128.048 -17.127,266.252 15.533,292.538c14.736,11.949 46.001,14.139 65.119,17.326c56.158,9.359 114.307,7.965 172.058,6.969c49.188,-0.796 96.583,-11.55 141.987,-25.49c34.054,-10.355 48.79,-17.922 48.193,-49.187c-0.598,-40.028 -14.139,-168.673 -27.88,-278.798c126.255,-16.529 281.785,-47.794 422.378,-106.142c1.992,44.209 3.784,82.046 3.585,89.812c-1.195,30.469 -1.593,72.089 25.291,95.588c74.877,65.916 260.277,27.481 346.306,-1.195c64.124,-21.109 44.409,-95.787 31.664,-139.399c-7.368,-26.087 -37.04,-161.902 -65.916,-256.892Z" style="fill:#bdcf46;fill-rule:nonzero;"/><path d="M3256.04,2873.14c-33.455,-31.464 -88.418,9.16 -119.086,25.49c-27.482,14.736 -54.764,29.274 -82.644,43.014c20.114,52.773 37.638,106.541 50.781,161.504c5.975,24.494 13.542,51.378 17.326,78.262c0.995,-1.194 1.991,-2.389 2.987,-3.385c10.156,-11.55 19.316,-23.299 28.278,-35.845c34.85,-49.387 61.335,-103.952 89.813,-156.924c13.74,-26.485 39.031,-87.024 12.545,-112.116Z" style="fill:#bdcf46;fill-rule:nonzero;"/></g><g><g><path d="M1768.65,3683.85c-22.503,0.796 -45.205,0.597 -68.505,0.597c-165.885,0 -324.003,-4.381 -487.298,-41.421c-247.931,-55.959 -441.098,-204.319 -474.753,-469.774c-20.711,-163.495 12.347,-357.26 138.602,-471.766c118.489,-107.536 331.57,-137.208 477.541,-87.622c170.066,58.149 293.932,197.946 364.627,359.251c54.366,124.264 91.207,235.783 114.108,369.805c3.386,20.512 41.023,330.574 -2.987,336.35c-20.312,2.588 -40.824,3.982 -61.335,4.58Z" style="fill:#bdcf46;fill-rule:nonzero;"/></g><path d="M1327.95,2857.01c48.989,-8.762 96.982,29.075 107.138,84.835c10.156,55.56 -21.308,108.133 -70.297,117.095c-48.789,8.762 -96.782,-29.075 -107.138,-84.635c-10.156,-55.76 21.308,-108.134 70.297,-117.295Z" style="fill:#2f2f2f;fill-rule:nonzero;"/><path d="M879.684,2930.69c13.94,-54.764 64.721,-89.216 112.714,-76.869c48.192,12.347 75.873,66.912 61.933,121.675c-14.139,54.764 -64.522,89.216 -112.714,76.869c-47.993,-12.546 -75.873,-66.911 -61.933,-121.675Z" style="fill:#2f2f2f;fill-rule:nonzero;"/><g><path d="M1199.51,3172.05c-22.702,12.347 -42.218,25.49 -68.704,15.732c-15.334,-5.576 -29.871,-9.957 -43.213,-19.914c-9.559,-6.97 -20.313,-12.745 -29.871,-19.715c-4.979,-3.585 -9.758,-7.368 -14.737,-10.953c-5.576,-4.182 -7.567,-5.974 -14.736,-6.97c-5.775,-0.597 -17.127,-0.996 -21.508,3.784c-18.719,20.91 7.568,51.976 21.707,66.115c21.109,20.511 51.179,43.811 78.86,55.759c27.083,11.75 53.967,25.889 82.842,11.55c31.664,-15.931 59.145,-39.031 87.025,-60.339c18.321,-13.94 59.344,-38.435 52.175,-65.717c-4.978,-19.914 -28.079,-15.732 -43.213,-10.953c-19.118,5.775 -36.244,15.533 -53.968,24.495c-10.953,5.377 -21.706,11.351 -32.659,17.126Z" style="fill:#2f2f2f;fill-rule:nonzero;"/></g></g></g></g></g></g><defs><linearGradient id="_Linear2" x1="0" y1="0" x2="1" y2="0" gradientUnits="userSpaceOnUse" gradientTransform="matrix(10060.9,0,0,10060.9,-2837.05,791.272)"><stop offset="0" style="stop-color:#749992;stop-opacity:1"/><stop offset="1" style="stop-color:#588fcd;stop-opacity:1"/></linearGradient><linearGradient id="_Linear4" x1="0" y1="0" x2="1" y2="0" gradientUnits="userSpaceOnUse" gradientTransform="matrix(10060.9,0,0,10060.9,-1081.91,1781.18)"><stop offset="0" style="stop-color:#749992;stop-opacity:1"/><stop offset="1" style="stop-color:#588fcd;stop-opacity:1"/></linearGradient></defs></svg>