<?xml version="1.0" encoding="UTF-8" standalone="no"?><!DOCTYPE svg PUBLIC "-//W3C//DTD SVG 1.1//EN" "http://www.w3.org/Graphics/SVG/1.1/DTD/svg11.dtd"><svg width="100%" height="100%" viewBox="0 0 968 720" version="1.1" xmlns="http://www.w3.org/2000/svg" xmlns:xlink="http://www.w3.org/1999/xlink" xml:space="preserve" xmlns:serif="http://www.serif.com/" style="fill-rule:evenodd;clip-rule:evenodd;stroke-linejoin:round;stroke-miterlimit:2;"><g><g><g transform="matrix(0.636468,0,0,0.636468,-191.829,299.225)"><clipPath id="_clip1"><path d="M463.903,447.002l0,-49.275l-161.531,0l0,49.275l54.533,0l-0,156.347l52.466,-0l-0,-156.347l54.532,0Zm71.647,-48.985l-52.466,0l0,136.622c-0.29,96.266 163.562,96.266 163.852,-0l-0,-136.622l-52.466,0l-0,136.622c-0.291,33.061 -58.92,33.061 -58.92,-0l-0,-136.622Zm251.523,205.332l64.65,-0l-55.954,-70.483c24.928,-7.825 40.291,-29.273 40.291,-67.285c-1.16,-48.144 -33.914,-67.564 -76.269,-67.564l-82.072,0l0,205.332l52.466,-0l0,-65.266l9.288,0l47.6,65.266Zm-56.888,-109.9l0,-47.027l30.477,0c32.788,0 32.788,47.027 0,47.027l-30.477,0Zm280.495,-46.447l0,-49.275l-161.531,0l0,49.275l54.533,0l-0,156.347l52.466,-0l-0,-156.347l54.532,0Zm20.341,156.347l135.716,-0l-0,-51.306l-83.54,-0l0,-154.026l-52.176,0l0,205.332Zm208.812,-156.637l90.501,0l0,-48.695l-142.966,0l-0,205.332l142.966,-0l0,-48.986l-90.501,0l0,-30.783l83.25,-0l-0,-44.924l-83.25,-0l0,-31.944Zm264.266,-48.695l-47.272,0l-71.634,205.332l55.683,-0l12.761,-41.19l54.813,-0l13.34,41.19l55.682,-0l-73.373,-205.332Zm-38.862,118.057l15.081,-60.043l1.45,-0l14.211,60.043l-30.742,0Zm125.904,87.275l51.886,-0l0,-60.044l30.478,-0c49.598,-0 74.817,-36.23 74.817,-72.79c-0,-36.267 -24.929,-72.498 -75.108,-72.498l-82.073,0l0,205.332Zm51.886,-106.129l0,-50.798l30.187,0c31.338,-0.29 31.338,51.088 0,50.798l-30.187,0Zm179.262,-99.203l-51.886,0l-0,205.332l51.886,-0l-0,-205.332Z" clip-rule="nonzero"/></clipPath><g clip-path="url(#_clip1)"><text x="298.293px" y="603.367px" style="font-family:'UniSansHeavyCAPS', 'Uni Sans';font-weight:900;font-size:290.067px;">Tur<tspan x="845.07px " y="603.367px ">t</tspan>le <tspan x="1386.92px 1574.88px " y="603.367px 603.367px ">AP</tspan>I</text><g transform="matrix(3.50055,0,0,2.25225,-3371.84,-4647.88)"><rect x="780.259" y="1742.99" width="940.071" height="822.562" style="fill:url(#_Linear2);"/></g></g></g></g><g><path d="M575.67,31.503c-16.87,-7.741 -34.961,-13.444 -53.877,-16.711c-0.344,-0.063 -0.688,0.095 -0.866,0.41c-2.326,4.138 -4.904,9.537 -6.708,13.78c-20.345,-3.046 -40.585,-3.046 -60.513,-0c-1.805,-4.338 -4.476,-9.642 -6.813,-13.78c-0.177,-0.305 -0.521,-0.462 -0.866,-0.41c-18.905,3.256 -36.996,8.96 -53.877,16.711c-0.146,0.063 -0.271,0.168 -0.354,0.304c-34.315,51.266 -43.715,101.272 -39.104,150.658c0.021,0.241 0.157,0.472 0.344,0.619c22.64,16.626 44.571,26.72 66.095,33.41c0.344,0.106 0.709,-0.02 0.928,-0.304c5.092,-6.953 9.63,-14.284 13.521,-21.994c0.23,-0.451 0.011,-0.987 -0.458,-1.165c-7.199,-2.731 -14.054,-6.061 -20.648,-9.842c-0.521,-0.304 -0.563,-1.05 -0.083,-1.407c1.387,-1.04 2.775,-2.122 4.1,-3.214c0.24,-0.2 0.574,-0.242 0.856,-0.116c43.318,19.778 90.215,19.778 133.022,0c0.282,-0.136 0.616,-0.094 0.866,0.105c1.326,1.092 2.713,2.185 4.111,3.225c0.48,0.357 0.449,1.103 -0.073,1.407c-6.593,3.855 -13.448,7.111 -20.658,9.831c-0.469,0.179 -0.678,0.725 -0.448,1.176c3.975,7.699 8.513,15.03 13.511,21.983c0.209,0.295 0.584,0.421 0.928,0.315c21.628,-6.69 43.559,-16.784 66.199,-33.41c0.198,-0.147 0.323,-0.367 0.344,-0.609c5.519,-57.095 -9.244,-106.691 -39.135,-150.657c-0.073,-0.147 -0.198,-0.252 -0.344,-0.315Zm-135.621,120.891c-13.041,-0 -23.788,-11.974 -23.788,-26.678c0,-14.705 10.538,-26.678 23.788,-26.678c13.355,0 23.997,12.079 23.788,26.678c-0,14.704 -10.538,26.678 -23.788,26.678Zm87.952,-0c-13.042,-0 -23.788,-11.974 -23.788,-26.678c0,-14.705 10.538,-26.678 23.788,-26.678c13.354,0 23.996,12.079 23.788,26.678c-0,14.704 -10.434,26.678 -23.788,26.678Z" style="fill:#b5b5b5;fill-rule:nonzero;"/><clipPath id="_clip3"><path d="M575.67,31.503c-16.87,-7.741 -34.961,-13.444 -53.877,-16.711c-0.344,-0.063 -0.688,0.095 -0.866,0.41c-2.326,4.138 -4.904,9.537 -6.708,13.78c-20.345,-3.046 -40.585,-3.046 -60.513,-0c-1.805,-4.338 -4.476,-9.642 -6.813,-13.78c-0.177,-0.305 -0.521,-0.462 -0.866,-0.41c-18.905,3.256 -36.996,8.96 -53.877,16.711c-0.146,0.063 -0.271,0.168 -0.354,0.304c-34.315,51.266 -43.715,101.272 -39.104,150.658c0.021,0.241 0.157,0.472 0.344,0.619c22.64,16.626 44.571,26.72 66.095,33.41c0.344,0.106 0.709,-0.02 0.928,-0.304c5.092,-6.953 9.63,-14.284 13.521,-21.994c0.23,-0.451 0.011,-0.987 -0.458,-1.165c-7.199,-2.731 -14.054,-6.061 -20.648,-9.842c-0.521,-0.304 -0.563,-1.05 -0.083,-1.407c1.387,-1.04 2.775,-2.122 4.1,-3.214c0.24,-0.2 0.574,-0.242 0.856,-0.116c43.318,19.778 90.215,19.778 133.022,0c0.282,-0.136 0.616,-0.094 0.866,0.105c1.326,1.092 2.713,2.185 4.111,3.225c0.48,0.357 0.449,1.103 -0.073,1.407c-6.593,3.855 -13.448,7.111 -20.658,9.831c-0.469,0.179 -0.678,0.725 -0.448,1.176c3.975,7.699 8.513,15.03 13.511,21.983c0.209,0.295 0.584,0.421 0.928,0.315c21.628,-6.69 43.559,-16.784 66.199,-33.41c0.198,-0.147 0.323,-0.367 0.344,-0.609c5.519,-57.095 -9.244,-106.691 -39.135,-150.657c-0.073,-0.147 -0.198,-0.252 -0.344,-0.315Zm-135.621,120.891c-13.041,-0 -23.788,-11.974 -23.788,-26.678c0,-14.705 10.538,-26.678 23.788,-26.678c13.355,0 23.997,12.079 23.788,26.678c-0,14.704 -10.538,26.678 -23.788,26.678Zm87.952,-0c-13.042,-0 -23.788,-11.974 -23.788,-26.678c0,-14.705 10.538,-26.678 23.788,-26.678c13.354,0 23.996,12.079 23.788,26.678c-0,14.704 -10.434,26.678 -23.788,26.678Z" clip-rule="nonzero"/></clipPath><g clip-path="url(#_clip3)"><rect x="-63.943" y="-465.386" width="1139.58" height="1139.58" style="fill:url(#_Linear4);"/></g><path d="M490.953,220.772l-0,-19.625l-14.018,-0l-0,19.625l-19.626,-0l0,14.018l19.626,0l-0,19.625l14.018,0l-0,-19.625l19.625,0l0,-14.018l-19.625,-0Z"/><clipPath id="_clip5"><path d="M490.953,220.772l-0,-19.625l-14.018,-0l-0,19.625l-19.626,-0l0,14.018l19.626,0l-0,19.625l14.018,0l-0,-19.625l19.625,0l0,-14.018l-19.625,-0Z"/></clipPath><g clip-path="url(#_clip5)"><rect x="134.859" y="-353.26" width="1139.58" height="1139.58" style="fill:url(#_Linear6);"/></g><g><path d="M430.04,280.554c-0,-0 5.752,-3.338 8.977,-4.782l50.166,18.451l81.135,2.188c0,0 6.091,6.316 7.895,8.481l14.73,42.271l11.887,4.76c-0,-0 2.729,8.165 3.496,11.255l-2.459,19.489l-117.609,29.166l-94.444,-23.166l0.293,-58.06l28.872,-37.602l7.061,-12.451Z" style="fill:#2f2f2f;fill-rule:nonzero;"/><g><g><path d="M504.566,329.592c-0.225,11.413 -0.857,44.21 -0.631,63.248c3.767,0.09 7.894,-0.113 12.451,-0.586c6.09,-0.609 12.451,-1.827 18.586,-3l3.903,-0.745c6.293,-1.195 12.112,-2.684 17.797,-4.556c8.774,-2.887 18.473,-6.609 27.225,-12c-6.428,-22.399 -17.955,-39.203 -21.654,-44.233c-24.812,-1.963 -48.586,0.654 -57.677,1.872Z" style="fill:#757f3f;fill-rule:nonzero;"/><path d="M570.521,322.712c4.399,6.023 14.955,21.947 21.677,43.354c4.917,-4.083 9.158,-8.955 12.406,-14.707c-3.022,-8.414 -6.676,-16.579 -11.052,-24.361c-4.399,-7.805 -9.519,-15.271 -15.316,-22.128c-2.143,7.015 -5.549,13.872 -7.715,17.842Z" style="fill:#757f3f;fill-rule:nonzero;"/><path d="M441.543,291.516c9.609,3.677 42.519,16.76 59.527,28.828c7.331,-1.083 33.135,-4.422 60.993,-2.301c3.609,-6.654 7.398,-15.587 8.233,-21.654c-0.339,-0.339 -0.632,-0.7 -0.97,-1.015c-11.572,-10.873 -26.233,-16.85 -41.03,-21.858c-20.662,-6.992 -43.151,-9.451 -64.692,-5.594c-8.527,1.534 -16.76,4.173 -24.587,7.85l2.526,15.744Z" style="fill:#757f3f;fill-rule:nonzero;"/><path d="M608.258,363.246c-4.488,5.752 -9.924,10.534 -15.744,14.504c-0.113,0.09 -0.248,0.158 -0.338,0.248c-10.692,7.218 -22.625,11.865 -32.482,15.09c-6.09,2.008 -12.293,3.609 -19.015,4.872l-3.902,0.745c-6.361,1.218 -12.902,2.481 -19.421,3.158c-3.857,0.383 -7.805,0.699 -11.797,0.699c-11.91,-0 -23.865,-2.797 -32.594,-14.729c-3.519,-4.85 -7.444,-8.933 -11.617,-12.136l-1.737,-1.353c-2.639,-2.098 -7.579,-6.023 -10.128,-6.09l0.248,-9.632c5.775,0.158 11.617,4.782 15.88,8.165l1.579,1.241c4.895,3.744 9.474,8.481 13.557,14.098c3.676,5.03 8.165,7.895 13.556,9.406c-0.18,-20.346 0.474,-54.181 0.677,-63.7c-16.512,-11.549 -49.715,-24.631 -57.632,-27.654c-3.113,1.917 -11.143,8.594 -20.594,18.226c-0.948,0.97 -2.211,1.443 -3.451,1.443c-1.218,0 -2.436,-0.451 -3.361,-1.376c-1.895,-1.849 -1.94,-4.894 -0.068,-6.812c5.978,-6.067 15.451,-15.248 22.083,-19.353l-1.917,-11.775c-16.151,9.655 -32.098,24.632 -41.685,42.046c-9.609,17.391 -12.857,37.173 -3.699,56.323c3,6.203 9.023,16.624 15.068,20.233c5.346,3.203 11.007,5.933 16.782,8.324c5.12,2.12 9.451,4.782 14.707,6.315c4.691,1.399 9.541,2.91 14.3,3.97c4.805,1.083 9.79,1.421 14.617,2.324c4.286,0.789 8.617,1.511 12.947,1.579c22.219,0.293 44.685,1.466 66.497,-3.812c13.263,-3.203 26.414,-7.196 38.887,-12.7c6.316,-2.752 12.474,-5.909 18.271,-9.609c4.714,-2.977 10.917,-5.909 13.376,-11.233c2.594,-5.616 0.383,-12.406 -0.992,-18.09c-0.249,-0.947 -0.587,-1.963 -0.858,-2.955Z" style="fill:#757f3f;fill-rule:nonzero;"/></g><g><path d="M407.145,417.111c-2.211,-1.308 -5.369,-1.76 -9.654,-2.369c-5.639,-0.789 -11.775,-2.368 -17.414,-1.353c-4.85,0.88 -5.368,2.12 -6.947,6.609c-2.459,7.06 -9.609,28.218 -4.061,34.895c1.376,1.647 4.579,2.233 6.542,2.82c5.662,1.714 11.684,2.097 17.639,2.503c5.075,0.339 10.083,-0.586 14.932,-1.94c3.632,-1.015 5.234,-1.872 5.527,-5.887c0.654,-8.571 -1.263,-17.03 -2.03,-25.534c-0.542,-5.504 -1.895,-8.21 -4.534,-9.744Z" style="fill:#bdcf46;fill-rule:nonzero;"/><g><path d="M603.003,391.69c-2.098,1.398 -4.331,2.639 -6.294,3.879c-5.797,3.677 -11.954,6.835 -18.27,9.609c-12.474,5.504 -25.624,9.497 -38.888,12.7c-21.812,5.278 -44.278,4.105 -66.496,3.812c-4.354,-0.068 -8.684,-0.79 -12.948,-1.579c-1.195,-0.226 -2.368,-0.406 -3.564,-0.587l1.173,12.519c0,0 4.241,0.316 11.82,-0.158c-1.466,14.504 -1.94,30.158 1.759,33.136c1.67,1.353 5.211,1.601 7.376,1.962c6.361,1.06 12.948,0.902 19.489,0.79c5.572,-0.091 10.94,-1.309 16.083,-2.888c3.857,-1.172 5.526,-2.03 5.459,-5.571c-0.068,-4.534 -1.602,-19.105 -3.158,-31.579c14.301,-1.872 31.917,-5.414 47.842,-12.023c0.226,5.008 0.429,9.294 0.406,10.173c-0.135,3.451 -0.18,8.166 2.865,10.827c8.481,7.467 29.481,3.113 39.225,-0.135c7.264,-2.391 5.031,-10.85 3.587,-15.789c-0.835,-2.955 -4.196,-18.339 -7.466,-29.098Z" style="fill:#bdcf46;fill-rule:nonzero;"/><path d="M626.213,340.216c-3.789,-3.564 -10.015,1.037 -13.488,2.887c-3.113,1.669 -6.203,3.316 -9.361,4.872c2.278,5.978 4.263,12.068 5.752,18.294c0.676,2.774 1.533,5.819 1.962,8.864c0.113,-0.135 0.226,-0.27 0.338,-0.383c1.151,-1.308 2.188,-2.639 3.203,-4.06c3.948,-5.594 6.948,-11.775 10.173,-17.775c1.557,-3 4.421,-9.857 1.421,-12.699Z" style="fill:#bdcf46;fill-rule:nonzero;"/></g><g><g><path d="M457.739,432.043c-2.549,0.09 -5.12,0.068 -7.759,0.068c-18.79,-0 -36.7,-0.496 -55.196,-4.692c-28.083,-6.338 -49.963,-23.143 -53.775,-53.211c-2.346,-18.518 1.399,-40.466 15.7,-53.436c13.421,-12.18 37.556,-15.541 54.09,-9.925c19.263,6.587 33.293,22.421 41.301,40.692c6.158,14.075 10.331,26.707 12.925,41.888c0.383,2.323 4.646,37.443 -0.339,38.097c-2.3,0.294 -4.624,0.452 -6.947,0.519Z" style="fill:#bdcf46;fill-rule:nonzero;"/></g><path d="M407.821,338.389c5.549,-0.993 10.986,3.293 12.136,9.609c1.15,6.293 -2.414,12.248 -7.963,13.263c-5.526,0.992 -10.962,-3.293 -12.135,-9.586c-1.15,-6.316 2.414,-12.249 7.962,-13.286Z" style="fill:#2f2f2f;fill-rule:nonzero;"/><path d="M357.047,346.735c1.579,-6.203 7.331,-10.106 12.767,-8.707c5.458,1.398 8.594,7.579 7.015,13.782c-1.602,6.203 -7.308,10.105 -12.767,8.707c-5.436,-1.421 -8.594,-7.579 -7.015,-13.782Z" style="fill:#2f2f2f;fill-rule:nonzero;"/><g><path d="M393.273,374.073c-2.572,1.399 -4.782,2.887 -7.782,1.782c-1.737,-0.632 -3.384,-1.128 -4.895,-2.256c-1.083,-0.789 -2.301,-1.443 -3.384,-2.233c-0.564,-0.406 -1.105,-0.834 -1.669,-1.24c-0.631,-0.474 -0.857,-0.677 -1.669,-0.79c-0.654,-0.067 -1.94,-0.113 -2.436,0.429c-2.12,2.368 0.857,5.887 2.459,7.489c2.391,2.323 5.797,4.962 8.932,6.315c3.068,1.331 6.113,2.933 9.383,1.309c3.587,-1.805 6.7,-4.421 9.858,-6.835c2.075,-1.579 6.721,-4.353 5.909,-7.444c-0.564,-2.255 -3.18,-1.782 -4.894,-1.24c-2.166,0.654 -4.106,1.759 -6.113,2.774c-1.241,0.609 -2.459,1.286 -3.699,1.94Z" style="fill:#2f2f2f;fill-rule:nonzero;"/></g></g></g></g></g></g></g><defs><linearGradient id="_Linear2" x1="0" y1="0" x2="1" y2="0" gradientUnits="userSpaceOnUse" gradientTransform="matrix(940.071,0,0,822.562,780.259,2154.27)"><stop offset="0" style="stop-color:#749992;stop-opacity:1"/><stop offset="1" style="stop-color:#588fcd;stop-opacity:1"/></linearGradient><linearGradient id="_Linear4" x1="0" y1="0" x2="1" y2="0" gradientUnits="userSpaceOnUse" gradientTransform="matrix(1139.58,0,0,1139.58,-63.9426,104.405)"><stop offset="0" style="stop-color:#749992;stop-opacity:1"/><stop offset="1" style="stop-color:#588fcd;stop-opacity:1"/></linearGradient><linearGradient id="_Linear6" x1="0" y1="0" x2="1" y2="0" gradientUnits="userSpaceOnUse" gradientTransform="matrix(1139.58,0,0,1139.58,134.859,216.531)"><stop offset="0" style="stop-color:#749992;stop-opacity:1"/><stop offset="1" style="stop-color:#588fcd;stop-opacity:1"/></linearGradient></defs></svg>